# xmcd
#
# Track frame offsets: 
#        150
#        22050
#        43650
#        76515
#        110865
#        137415
#        174015
#        245865
#
# Disc length: 3528 seconds
#
# Revision: 0
# Processed by: cddbd v1.5.2PL0 Copyright (c) Steve Scherf et al.
# Submitted via: ExactAudioCopy v0.99pb5
#
DISCID=600dc608
DTITLE=Jeff Prine and  - Jeff Prine Group Featuring Juanita Dixon
DYEAR=2001
DGENRE=Blues
TTITLE0=High Heal Sneakers
TTITLE1=Shackey Ground
TTITLE2=Blues All Day Long
TTITLE3=Damn Your Eyes
TTITLE4=Watermelon Man
TTITLE5=Woke Up This Morning
TTITLE6=Down Home Blues
TTITLE7=Little Nicky
EXTD=
EXTT0=
EXTT1=
EXTT2=
EXTT3=
EXTT4=
EXTT5=
EXTT6=
EXTT7=
PLAYORDER=
